<?xml version="1.0" encoding="utf-8"?>
<!-- Generator: Adobe Illustrator 18.1.1, SVG Export Plug-In . SVG Version: 6.00 Build 0)  -->
<!DOCTYPE svg PUBLIC "-//W3C//DTD SVG 1.1//EN" "http://www.w3.org/Graphics/SVG/1.1/DTD/svg11.dtd">
<svg version="1.1" id="Layer_1" xmlns="http://www.w3.org/2000/svg" xmlns:xlink="http://www.w3.org/1999/xlink" x="0px" y="0px"
	 viewBox="0 0 40 40" enable-background="new 0 0 40 40" xml:space="preserve">
<g>
	<circle fill="#DD4B39" cx="20" cy="20" r="20"/>
	<path fill="#FFFFFF" d="M20.5,26.1c0-0.2,0-0.3-0.1-0.5c0-0.2-0.1-0.3-0.1-0.4c0-0.1-0.1-0.3-0.2-0.4c-0.1-0.1-0.2-0.3-0.3-0.4
		c-0.1-0.1-0.2-0.2-0.3-0.4c-0.1-0.1-0.3-0.2-0.3-0.3c-0.1-0.1-0.2-0.2-0.4-0.3c-0.2-0.1-0.3-0.2-0.4-0.3s-0.2-0.1-0.4-0.3
		c-0.2-0.1-0.3-0.2-0.4-0.3c-0.1,0-0.3,0-0.6,0c-0.4,0-0.9,0-1.3,0.1c-0.4,0.1-0.8,0.2-1.3,0.3c-0.4,0.1-0.8,0.3-1.2,0.6
		s-0.6,0.5-0.8,0.9c-0.2,0.4-0.3,0.8-0.3,1.3c0,0.5,0.1,1,0.4,1.5c0.3,0.4,0.7,0.8,1.1,1c0.5,0.2,0.9,0.4,1.4,0.5
		c0.5,0.1,1,0.2,1.5,0.2c0.5,0,0.9-0.1,1.4-0.2c0.4-0.1,0.8-0.3,1.2-0.5c0.4-0.2,0.7-0.5,0.9-0.9C20.4,27,20.5,26.6,20.5,26.1z
		 M19.1,15.7c0-0.5-0.1-1-0.2-1.5c-0.1-0.5-0.3-1.1-0.6-1.6c-0.2-0.5-0.6-0.9-1-1.3c-0.4-0.3-0.9-0.5-1.4-0.5
		c-0.7,0-1.3,0.3-1.7,0.8c-0.4,0.6-0.6,1.2-0.6,2c0,0.4,0,0.8,0.1,1.2c0.1,0.4,0.2,0.8,0.4,1.3c0.2,0.4,0.4,0.8,0.7,1.1
		c0.3,0.3,0.6,0.6,0.9,0.8c0.4,0.2,0.8,0.3,1.2,0.3c0.8,0,1.3-0.2,1.7-0.7C18.9,17.2,19.1,16.5,19.1,15.7z M17.5,10h5.3l-1.6,0.9
		h-1.6c0.6,0.4,1,0.9,1.3,1.5c0.3,0.6,0.5,1.3,0.5,2c0,0.6-0.1,1.1-0.3,1.6c-0.2,0.5-0.4,0.8-0.7,1.1c-0.3,0.3-0.5,0.5-0.8,0.8
		c-0.3,0.2-0.5,0.5-0.7,0.7c-0.2,0.3-0.3,0.5-0.3,0.8c0,0.2,0.1,0.4,0.2,0.6c0.1,0.2,0.3,0.4,0.5,0.6c0.2,0.2,0.4,0.4,0.7,0.6
		c0.3,0.2,0.5,0.4,0.8,0.7c0.3,0.2,0.5,0.5,0.7,0.8c0.2,0.3,0.4,0.6,0.5,1c0.1,0.4,0.2,0.8,0.2,1.3c0,1.3-0.6,2.4-1.7,3.4
		c-1.2,1-2.9,1.6-5,1.6c-0.5,0-1,0-1.4-0.1c-0.5-0.1-1-0.2-1.5-0.4c-0.5-0.2-0.9-0.4-1.3-0.7c-0.4-0.3-0.7-0.6-0.9-1.1
		c-0.2-0.4-0.4-0.9-0.4-1.5c0-0.5,0.1-1,0.4-1.6c0.3-0.5,0.6-1,1.2-1.3c0.5-0.4,1.1-0.7,1.7-0.9c0.6-0.2,1.3-0.3,1.9-0.4
		c0.6-0.1,1.2-0.1,1.8-0.2c-0.5-0.7-0.8-1.3-0.8-1.8c0-0.1,0-0.2,0-0.3c0-0.1,0-0.2,0.1-0.2c0-0.1,0.1-0.2,0.1-0.3
		c0-0.1,0.1-0.2,0.1-0.3c-0.3,0-0.6,0.1-0.8,0.1c-1.2,0-2.2-0.4-3.1-1.2c-0.9-0.8-1.3-1.8-1.3-3c0-1.1,0.4-2.1,1.1-3
		c0.8-0.9,1.7-1.5,2.8-1.7C16,10.1,16.8,10,17.5,10z M30,13.1v1.5h-3.1v3.1h-1.5v-3.1h-3.1v-1.5h3.1V10h1.5v3.1H30z"/>
</g>
</svg>
